PathFileType	4	(X/Y/Z)	Patient4_TMGait_0pt6_01_right_06.trc.trc
DataRate	CameraRate	NumFrames	NumMarkers	Units	OrigDataRate	OrigDataStartFrame	OrigNumFrames
82.840236686391	82.840236686391	7	33	mm	82.840236686391	89	       141
Frame#	Time	Sacral			L.Shoulder			Chest			R.Shoulder			Neck			R.ASIS			L.ASIS			R.Thigh.Superior			R.Thigh.Lateral			R.Thigh.Inferior			R.Patella			L.Thigh.Superior			L.Thigh.Lateral			L.Thigh.Inferior			L.Patella			L.Shank.Superior			L.Shank.Lateral			L.Shank.Inferior			R.Shank.Superior			R.Shank.Lateral			R.Shank.Inferior			R.Heel			R.Midfoot.Superior			R.Midfoot.Lateral			R.Toe			L.Heel			L.Midfoot.Lateral			L.Midfoot.Superior			L.Toe			L.Elbow			L.Wrist			R.Elbow			R.Wrist			
		X1	Y1	Z1	X2	Y2	Z2	X3	Y3	Z3	X4	Y4	Z4	X5	Y5	Z5	X6	Y6	Z6	X7	Y7	Z7	X8	Y8	Z8	X9	Y9	Z9	X10	Y10	Z10	X11	Y11	Z11	X12	Y12	Z12	X13	Y13	Z13	X14	Y14	Z14	X15	Y15	Z15	X16	Y16	Z16	X17	Y17	Z17	X18	Y18	Z18	X19	Y19	Z19	X20	Y20	Z20	X21	Y21	Z21	X22	Y22	Z22	X23	Y23	Z23	X24	Y24	Z24	X25	Y25	Z25	X26	Y26	Z26	X27	Y27	Z27	X28	Y28	Z28	X29	Y29	Z29	X30	Y30	Z30	X31	Y31	Z31	X32	Y32	Z32	X33	Y33	Z33	

89	7.782285714286	628.799769076662	1004.644284416197	466.295502714241	777.478562821780	1426.075909174719	263.329751431008	897.640385634274	1365.076974049981	415.858841964795	829.587645777289	1445.402488872054	592.794921823162	776.287304706664	1492.244001645059	413.073373006490	860.436579447305	936.179611548119	569.534188798136	833.380997903995	963.585509014231	296.729121940419	906.473287722392	736.070645005044	540.850836420228	834.081513576211	622.986889952734	605.986365534219	914.878021597683	567.901512085173	528.479433635764	908.234106254749	456.142034175613	546.167219874456	897.339301055274	758.397593131385	326.062547906681	816.060827767308	636.367421344669	273.559656318192	906.586512854285	566.113730297277	337.580505575974	911.807196386024	497.436402058084	348.613124704923	891.636867112348	424.085816414634	341.865676898048	811.729330325083	301.044510976270	297.133509644360	874.898853871282	197.243176417786	369.638648355184	828.104151082489	390.576864057665	550.275175226654	706.410087731006	353.011325773459	610.778559146088	687.614804971668	246.922164816092	556.914319019814	482.822937545382	185.954704966006	525.572039516767	651.958797478946	133.114872441173	571.170223280631	542.410386321762	132.988820420244	602.795698191833	718.101057035005	31.925214463832	604.980813012741	759.696758909589	37.121156758479	419.431988087713	830.845494548923	34.993031868968	335.765245983968	913.691857752693	97.154663450023	359.285124367544	1041.591651663319	48.572734845851	327.614641129191	746.121725024087	1067.971522869909	160.450335037260	838.389654174961	823.910373798953	165.719518672550	892.869614688340	1101.328317725198	704.252741037841	1116.792245056856	1028.258206914922	606.607935233120	
90	7.794357142857	627.781389987117	1004.689161806572	463.793351795701	778.079573573847	1426.554367698052	261.514653216645	896.998314649584	1365.471974485418	414.963123105487	827.580157875062	1445.458087216540	591.554912771956	775.810850553863	1492.783790184310	411.171691546162	859.255402527624	936.628625577874	567.895235817887	833.108663434810	963.925682900562	295.010570603180	910.459902435253	739.549357632598	538.978993846382	841.905918854742	625.070340951321	605.133249585872	924.185061023128	571.643934186951	527.666538932527	919.756430699194	458.935662835845	545.980493982764	895.468822252256	757.669626721778	324.106646413806	813.239328951757	636.310091032407	272.036797424743	903.007096351914	565.369708911864	336.250180557483	907.558847072680	496.683598190279	347.461639597854	886.951457626640	423.471701361385	340.903269523951	806.297504128964	300.870882321303	296.472445750159	868.547885072239	196.839706009381	369.325956511676	838.412917599021	393.435308604233	549.875025222649	715.437458110293	358.926998259530	609.777474105040	694.484893765226	253.061788979477	556.407573627177	488.643723701257	199.221927702446	524.199870103545	655.560049191101	138.895663951592	570.485603026721	545.647199031578	143.514233514064	601.705175833844	717.098565390318	33.050973217147	604.715193390479	752.398476625938	37.100598340888	419.386709610759	823.525546485001	34.920589952583	335.724548333830	906.494770712517	96.964924661499	359.252925403639	1034.366697753788	48.159742277511	327.543500952723	752.820167674611	1068.441044685686	156.579103449250	852.141867398441	827.102423431594	163.304770549242	884.648223109279	1099.781754336875	703.091555285302	1104.855980882448	1009.762181673872	609.402158765253	
91	7.806428571429	626.780245523729	1004.726034536380	461.388512017603	778.563101183900	1427.067383683901	259.866768786641	896.309378402739	1365.851068221736	414.156165043187	825.595244941937	1445.401623391014	590.463022103816	775.276826354877	1493.299170541982	409.486956203005	858.062065962478	937.121088251138	566.223127312777	832.791736181919	964.199430293982	293.304144687603	914.081993710568	743.143166376023	537.139492008661	849.272787568319	627.477589155263	604.374295627647	932.880450837570	575.735913750607	526.877511297633	930.785381437322	462.218613474339	545.735204102611	893.683506868159	756.989965978688	322.384760874335	810.557328164213	636.268204645490	270.590637136068	899.573120966130	564.653683943921	334.999779317158	903.473412716898	495.929116906115	346.367003694530	882.393960058604	422.855186255574	339.998906079951	800.959890376325	300.728916175277	295.824209203975	862.272691872460	196.442382384429	369.009567321616	848.534720410683	396.579886944573	549.486296003674	724.513109169200	364.556486022594	608.785919427965	701.905706463399	258.883856635694	555.847673403754	495.458121159190	210.688954210169	522.769978659483	660.381403204924	144.547163934230	569.733816726401	550.279438063633	152.856457496235	600.522616674551	718.179964676036	34.831870167085	604.330534377000	745.117623590156	37.096864152103	419.334987039128	816.232358186661	34.868381433814	335.681016741663	899.333105813218	96.789511825775	359.215620400723	1027.167104111436	47.732202508340	327.473473951959	759.376951648675	1069.101174066563	152.841887576391	865.832489975108	830.761587161673	161.079732151482	876.307416544828	1098.155865444133	701.997867249657	1091.423485381532	991.014211777421	612.986790361758	
92	7.818500000000	625.814886652913	1004.800192811149	459.066343083640	778.942250106750	1427.657664525604	258.373779220013	895.586300473875	1366.250172610628	413.423375051041	823.654517421718	1445.290013642285	589.494341961736	774.704164625586	1493.816916965325	408.021458141850	856.864880778891	937.722100225532	564.546534961626	832.460112657763	964.443983265727	291.626717368867	917.317697240887	746.834746479870	535.371722323861	856.111026877711	630.174890376382	603.702610530126	940.920171050512	580.123975537690	526.132346260012	941.253697374145	465.935645768169	545.470668861651	891.990136397379	756.352879132129	320.849062504772	807.944152445269	636.247080274803	269.245694159357	896.231157413413	563.957241179116	333.811306475476	899.495173510219	495.181182562578	345.332757939742	877.913269835680	422.252212935038	339.151664699641	795.659862317863	300.632786534453	295.202957040079	856.045272361710	196.067154358420	368.685712689290	858.413639298081	399.954886952813	549.130446137382	733.577269885806	369.751179954364	607.833510212629	709.877622946283	264.204714165515	555.261595865171	503.190164421695	219.978816278647	521.335131005059	666.534084843872	149.835751989079	568.968807016725	556.339348458739	160.660308161660	599.291183521137	721.594557353235	37.163540199985	603.829978694458	737.847204738430	37.112966801673	419.275577838643	808.961490859279	34.836317418529	335.632879445462	892.195550283941	96.635469755948	359.166034864291	1019.983284191645	47.310253168516	327.402902948211	765.737548751146	1069.981586645658	149.281938368526	879.384027861013	834.932332769285	159.056839908964	867.876755363221	1096.549825587728	700.977014633940	1076.428750836733	972.229129346694	617.378733624790	
93	7.830571428571	624.900408021666	1004.943052418803	456.811662802619	779.236479018666	1428.353629030015	257.017584654346	894.839447060075	1366.699395558285	412.753000780515	821.764139295493	1445.174734739586	588.623195194926	774.108704245673	1494.357690713364	406.763641045017	855.677554798333	938.483111039511	562.905844173337	832.151505122959	964.694247283446	289.998684559424	920.171432416256	750.600275064270	533.716402072687	862.384783246090	633.113126684332	603.114741536568	948.290518391173	584.739176233082	525.452150845629	951.119030590412	470.021625436563	545.224780408166	890.370164489437	755.746229914505	319.459233435618	805.326161389167	636.250212258612	268.016283950953	892.911371070718	563.271509129197	332.672109948773	895.547357127149	494.445456920647	344.357854329479	873.442283621627	421.676948252126	338.355650842139	790.332002126314	300.590032654847	294.616776797515	849.830570811662	195.727488567399	368.350434094202	868.017770896991	403.493081895662	548.827813184152	742.598003922537	374.368233440505	606.951811993652	718.411355223961	268.854575152200	554.679884176675	511.786509888083	226.834393239633	519.945609647845	674.100475481446	154.529429536611	568.252060720394	563.834475323460	166.655350844379	598.060657323663	727.487789773629	39.847757355125	603.246310250516	730.578295377587	37.150318690006	419.208614367231	801.706007691021	34.822015075915	335.579543726365	885.070204512296	96.505914070679	359.098665983901	1012.804899058100	46.907825234266	327.331221549422	771.842619865543	1071.092006391137	145.933257824308	892.725772233330	839.644714585599	157.241203588870	859.380588224369	1095.060460882385	700.032990774870	1059.842433011440	953.676890033001	622.573405827055	
94	7.842642857143	624.047656559763	1005.169162585746	454.612428512899	779.470493088893	1429.165355328256	255.777754786893	894.077850196552	1367.218296388418	412.137668789268	819.918474015041	1445.096137385060	587.826101960299	773.503088937886	1494.933780763020	405.689548121520	854.518218631258	939.432919435289	561.346078191215	831.908502888359	964.979682209660	288.439180451406	922.667208125721	754.407483297050	532.211083421347	868.087146273158	636.230100712523	602.610372380343	954.998973035837	589.499595716588	524.855967360086	960.356933332353	474.402632072677	545.030828266193	888.786025985385	755.156230292662	318.189435805382	802.637948187478	636.280068496985	266.904590335914	889.539274085583	562.589239859663	331.574609122495	891.545420080716	493.725408661120	343.435679915443	868.909315634894	421.140615526639	337.599891249960	784.911328871384	300.601981291187	294.066437510776	843.591867193730	195.433244776983	367.999233145360	877.330808025761	407.119367162829	548.597296743039	751.562065404569	378.281202787462	606.169547102975	727.519283564872	272.689577088084	554.135918723590	521.217689950800	231.121934551846	518.647462931946	683.121372744528	158.415478014143	567.645074814063	572.747951368417	170.667255706525	596.884687960287	735.893030345774	42.626700639199	602.639087711231	723.302062659585	37.208517549492	419.135323175928	794.458221600938	34.821665319116	335.521335222740	877.945997463999	96.400970912955	359.009844228533	1005.622461287748	46.533985424313	327.258667554513	777.632368220708	1072.419122374902	142.819423570085	905.795959893320	844.911105882696	155.630533956529	850.835035067056	1093.772953268946	699.172510391523	1041.683590237542	935.672645778826	628.537605454124	
95	7.854714285714	623.263527188497	1005.475940983321	452.462646685727	779.672172166836	1430.083869873675	254.635201486814	893.310233153952	1367.813033664369	411.575143895748	818.105257026538	1445.079987055400	587.084143077076	772.897733490773	1495.548022878318	404.766803737828	853.405449033113	940.570888397672	559.907688797791	831.773105958237	965.321321724445	286.962804556925	924.840547644848	758.214447465591	530.885740571215	873.231969172393	639.453502502863	602.191025099239	961.065670136890	594.313783625416	524.358169159773	968.953722722014	478.997567420342	544.915088465869	887.189607354890	754.570458664078	317.029094513931	799.828753735563	636.338185333324	265.901532766497	886.046198919946	561.905816814929	330.514281022324	887.409559384225	493.022778166226	342.554191919987	864.248699288332	420.650506452177	336.869234209502	779.341092643485	300.664670852966	293.546369321488	837.295668357498	195.189841490077	367.627214807811	886.344001432578	410.755250679354	548.455904991822	760.466039617295	381.389623578989	605.508966211248	737.208016912665	275.602024576801	553.664585511921	531.473705097365	232.820982181025	517.483791909996	693.589862720831	161.317466589383	567.198957868127	583.042667926836	172.619516995186	595.818948095155	746.742992322404	45.231409953292	602.084643549032	716.011604481803	37.285325578943	419.057671305649	787.211117456252	34.830911059278	335.459163025177	870.813645686032	96.318844769000	358.897857456980	998.428469406862	46.194416235616	327.185970482974	783.052045171092	1073.927393295154	139.953903064458	918.542228501548	850.725042121158	154.216045749146	842.244685803485	1092.754975947553	698.408231313289	1022.028551247131	918.557557882219	635.204493340404	
